<?xml version="1.0" encoding="UTF-8" standalone="no"?>
<svg
   version="1.0"
   width="90.000000pt"
   height="90.000000pt"
   viewBox="0 0 90.000000 90.000000"
   preserveAspectRatio="xMidYMid meet"
   id="svg10"
   sodipodi:docname="favicon.svg"
   inkscape:version="1.2.2 (b0a8486541, 2022-12-01)"
   xmlns:inkscape="http://www.inkscape.org/namespaces/inkscape"
   xmlns:sodipodi="http://sodipodi.sourceforge.net/DTD/sodipodi-0.dtd"
   xmlns="http://www.w3.org/2000/svg"
   xmlns:svg="http://www.w3.org/2000/svg">
  <defs
     id="defs14" />
  <sodipodi:namedview
     id="namedview12"
     pagecolor="#505050"
     bordercolor="#eeeeee"
     borderopacity="1"
     inkscape:showpageshadow="0"
     inkscape:pageopacity="0"
     inkscape:pagecheckerboard="0"
     inkscape:deskcolor="#505050"
     inkscape:document-units="pt"
     showgrid="false"
     inkscape:zoom="1.5129139"
     inkscape:cx="-153.34647"
     inkscape:cy="99.476911"
     inkscape:window-width="1277"
     inkscape:window-height="666"
     inkscape:window-x="0"
     inkscape:window-y="0"
     inkscape:window-maximized="1"
     inkscape:current-layer="g8" />
  <g
     transform="translate(0.000000,90.000000) scale(0.100000,-0.100000)"
     fill="#000000"
     stroke="none"
     id="g8">
    <path
       d="M154 811 c-17 -10 -42 -34 -55 -53 -23 -32 -24 -39 -27 -268 -4 -286 -1 -309 45 -361 58 -64 142 -73 211 -22 29 22 62 70 62 91 0 5 -18 14 -40 21 -115 34 -177 172 -123 276 12 22 53 71 93 109 67 65 72 72 66 104 -12 75 -70 122 -151 122 -31 0 -62 -7 -81 -19z"
       id="path2"
       style="fill:#13aafe;fill-opacity:1" />
    <path
       d="M600 823 c-37 -14 -90 -82 -90 -116 0 -9 14 -17 33 -21 74 -14 147 -108 147 -191 0 -62 -31 -113 -113 -193 -71 -68 -74 -74 -68 -105 18 -76 74 -120 156 -120 44 0 61 5 90 27 64 49 65 56 65 353 l0 268 -26 39 c-14 21 -41 44 -60 52 -33 14 -105 18 -134 7z"
       id="path4"
       style="fill:#fdd735;fill-opacity:1" />
    <path
       d="M425 621 c-58 -36 -153 -145 -160 -185 -16 -84 54 -168 139 -168 28 0 58 8 74 18 53 34 141 134 151 171 33 120 -101 228 -204 164z"
       id="path6"
       style="fill:#fe1643;fill-opacity:1" />
  </g>
</svg>
